<svg width="720" height="720" viewBox="0 0 720 720" fill="none" xmlns="http://www.w3.org/2000/svg">
  <rect width="720" height="720" rx="48" fill="#F7FBF8"/>
  <circle cx="154" cy="142" r="58" fill="#DCEFE2"/>
  <circle cx="576" cy="120" r="34" fill="#E6F4EA"/>
  <circle cx="606" cy="612" r="54" fill="#D7EEDC"/>
  <path d="M122 508C122 451.667 167.667 406 224 406H496C552.333 406 598 451.667 598 508V558C598 614.333 552.333 660 496 660H224C167.667 660 122 614.333 122 558V508Z" fill="#E7F3EA"/>
  <rect x="168" y="146" width="384" height="252" rx="28" fill="white" stroke="#DCE7DF" stroke-width="4"/>
  <rect x="192" y="178" width="120" height="20" rx="10" fill="#DCEFE2"/>
  <rect x="192" y="224" width="224" height="18" rx="9" fill="#EEF5F0"/>
  <rect x="192" y="254" width="184" height="18" rx="9" fill="#EEF5F0"/>
  <rect x="192" y="304" width="160" height="58" rx="20" fill="#2D6A4F"/>
  <rect x="444" y="224" width="84" height="84" rx="24" fill="#E6F4EA"/>
  <path d="M479.5 241C495.241 241 508 253.759 508 269.5C508 285.241 495.241 298 479.5 298C463.759 298 451 285.241 451 269.5C451 253.759 463.759 241 479.5 241Z" fill="#40916C"/>
  <path d="M344 234C344 165.517 399.517 110 468 110C536.483 110 592 165.517 592 234C592 279.129 567.724 320.241 531.641 342.114C530.143 343.022 529.101 344.523 528.839 346.255L519.343 409H415.969L407.161 350.29C406.889 348.474 405.79 346.911 404.228 345.947C367.157 323.097 344 281.99 344 234Z" fill="#284F3F"/>
  <path d="M448.273 325.368C423.713 320.024 405 299.177 405 273V242C405 206.654 433.654 178 469 178C504.346 178 533 206.654 533 242V273C533 298.692 514.974 319.177 490.878 325.116L481.186 327.505C473.301 329.449 465.06 329.457 457.171 327.527L448.273 325.368Z" fill="#FFD8B8"/>
  <path d="M433 254C433 226.386 455.386 204 483 204H493C520.614 204 543 226.386 543 254V263H433V254Z" fill="#173327"/>
  <path d="M427 241C427 214.49 448.49 193 475 193C501.51 193 523 214.49 523 241V262H427V241Z" fill="#173327"/>
  <path d="M443 354C443 345.163 450.163 338 459 338H481C489.837 338 497 345.163 497 354V411H443V354Z" fill="#FFD8B8"/>
  <path d="M363 658C367.737 561.304 414.839 483 470.5 483C526.161 483 573.263 561.304 578 658H363Z" fill="#2D6A4F"/>
  <path d="M320 659C335.008 558.293 394.968 479 468.5 479C542.032 479 601.992 558.293 617 659H320Z" fill="#40916C"/>
  <path d="M316 659C319.815 596.783 350.28 546 387.5 546C424.72 546 455.185 596.783 459 659H316Z" fill="#F1F5F2"/>
  <path d="M482 659C485.815 596.783 516.28 546 553.5 546C590.72 546 621.185 596.783 625 659H482Z" fill="#F1F5F2"/>
  <path d="M547 427C548.858 427 550.6 427.914 551.663 429.447L589.34 483.799C592.255 488.007 589.243 493.75 584.125 493.75H509.875C504.757 493.75 501.745 488.007 504.66 483.799L542.337 429.447C543.4 427.914 545.142 427 547 427Z" fill="#D7EEDC"/>
  <path d="M124 182C124 170.954 132.954 162 144 162H197C208.046 162 217 170.954 217 182V235C217 246.046 208.046 255 197 255H144C132.954 255 124 246.046 124 235V182Z" fill="#DDEFE3"/>
  <path d="M170.5 185L177.011 198.195L191.573 200.311L181.036 210.58L183.523 225.087L170.5 218.242L157.477 225.087L159.964 210.58L149.427 200.311L163.989 198.195L170.5 185Z" fill="#2D6A4F"/>
</svg>
